<?xml version="1.0" encoding="UTF-8"?>
<svg xmlns="http://www.w3.org/2000/svg" viewBox="0 0 256 256" fill="none">
  <title>SOCIALLUX Lightbulb Mark</title>
  <desc>Minimalist elongated lightbulb logo mark with node-and-stem filament.</desc>

  <!-- Bulb outline -->
  <path
    d="M128 22
       C 78 22, 48 58, 48 103
       C 48 136, 67 158, 86 176
       C 95 185, 100 196, 100 209
       L 100 210
       C 100 221, 109 230, 120 230
       L 136 230
       C 147 230, 156 221, 156 210
       L 156 209
       C 156 196, 161 185, 170 176
       C 189 158, 208 136, 208 103
       C 208 58, 178 22, 128 22 Z"
    stroke="currentColor"
    stroke-width="10"
    stroke-linecap="round"
    stroke-linejoin="round"
  />

  <!-- Node (atom) -->
  <circle cx="128" cy="106" r="9" stroke="currentColor" stroke-width="10"/>

  <!-- Stem -->
  <path d="M128 115 L128 176" stroke="currentColor" stroke-width="10" stroke-linecap="round"/>

  <!-- Base prongs -->
  <path
    d="M110 176 L110 204
       M128 176 L128 206
       M146 176 L146 204"
    stroke="currentColor"
    stroke-width="10"
    stroke-linecap="round"
  />

  <!-- Screw base -->
  <path
    d="M92 204
       C 110 192, 146 192, 164 204
       M96 224
       C 114 212, 142 212, 160 224
       M106 242
       C 118 236, 138 236, 150 242"
    stroke="currentColor"
    stroke-width="10"
    stroke-linecap="round"
    stroke-linejoin="round"
  />
</svg>
